Coordinates
version=1
nRows=24
nColumns=24
inDegrees=yes

Units are S.I. units (second, meters, Newtons, ...)
Angles are in degrees.

endheader
time	pelvis_tilt	pelvis_list	pelvis_rotation	pelvis_tx	pelvis_ty	pelvis_tz	hip_flexion_r	hip_adduction_r	hip_rotation_r	knee_angle_r	ankle_angle_r	subtalar_angle_r	mtp_angle_r	hip_flexion_l	hip_adduction_l	hip_rotation_l	knee_angle_l	ankle_angle_l	subtalar_angle_l	mtp_angle_l	lumbar_extension	lumbar_bending	lumbar_rotation
      1.90500000	     -7.81294794	     -1.98708527	      1.45613571	      0.31952454	      1.28691480	     -0.86406422	     11.24666512	      6.66700206	     14.11899419	     -5.12818753	     -1.49822985	     -6.70185539	     -2.96567848	     24.77949683	      3.31714551	     -1.74212658	    -54.24143724	    -15.34697230	    -32.87144756	      7.44665324	      0.60307086	      6.00544570	     -1.47229413
      1.91000000	     -7.70994638	     -1.96302126	      1.43601883	      0.32490547	      1.28718554	     -0.86392265	     10.50919090	      6.62219710	     14.10118026	     -4.72035654	     -1.28563520	     -6.46040839	     -2.94824630	     25.25198135	      3.46820170	     -1.53703744	    -53.45688970	    -14.40457484	    -32.54957519	      7.45217890	      0.47459626	      5.96962619	     -1.40612209
      1.91500000	     -7.61785633	     -1.93845516	      1.40637032	      0.33026947	      1.28738975	     -0.86377156	      9.79408996	      6.58098948	     14.15017877	     -4.32943360	     -1.11307505	     -6.28617936	     -2.91904125	     25.70826286	      3.61980001	     -1.32893612	    -52.58060921	    -13.50732133	    -32.32301888	      7.44782049	      0.35118149	      5.93831527	     -1.36419835
      1.92000000	     -7.49194585	     -1.94382617	      1.40609528	      0.33564057	      1.28753927	     -0.86367177	      9.01150114	      6.55741616	     14.16818795	     -3.87918826	     -0.91674087	     -6.11444662	     -2.85774732	     26.12406074	      3.75092529	     -1.06041236	    -51.67062385	    -12.59003995	    -31.87040846	      7.46427093	      0.19681310	      5.92873226	     -1.30156230
      1.92500000	     -7.38326345	     -1.95308983	      1.39491689	      0.34102016	      1.28760533	     -0.86356189	      8.25745545	      6.54080593	     14.22679339	     -3.44695158	     -0.73803689	     -5.98427492	     -2.78236442	     26.53128925	      3.87010280	     -0.80077198	    -50.68570768	    -11.72562884	    -31.51850382	      7.46303610	      0.06213405	      5.92696237	     -1.25688173
      1.93000000	     -7.26927997	     -1.97152220	      1.38490710	      0.34637677	      1.28761416	     -0.86348033	      7.49963508	      6.53051804	     14.30200132	     -3.01366914	     -0.57394071	     -5.88328550	     -2.69482031	     26.91165173	      3.98208643	     -0.52273290	    -49.63535333	    -10.91677263	    -31.20602742	      7.45107725	     -0.08772547	      5.94270966	     -1.22169393
      1.93500000	     -7.15454369	     -2.00289648	      1.37759258	      0.35174708	      1.28755412	     -0.86340974	      6.73697512	      6.53144168	     14.37209721	     -2.57208033	     -0.40827348	     -5.80181649	     -2.58808164	     27.26988651	      4.07361543	     -0.23976726	    -48.52860795	    -10.15808767	    -30.90530198	      7.43624596	     -0.23608882	      5.97175708	     -1.19287416
      1.94000000	     -7.03895826	     -2.04274200	      1.37034247	      0.35709918	      1.28742652	     -0.86335303	      5.98069521	      6.54001832	     14.44484652	     -2.14061757	     -0.24832303	     -5.72811197	     -2.48082395	     27.60606878	      4.15270820	      0.05232038	    -47.36383114	     -9.45933053	    -30.66662963	      7.41383785	     -0.38880032	      6.01169507	     -1.16864519
      1.94500000	     -6.92827914	     -2.10134682	      1.37167245	      0.36247438	      1.28722092	     -0.86330659	      5.22368447	      6.56631283	     14.47635236	     -1.69777620	     -0.06278217	     -5.63736314	     -2.32937956	     27.93445385	      4.20266181	      0.34564237	    -46.16542857	     -8.80228547	    -30.39561865	      7.38642202	     -0.52795736	      6.06646975	     -1.14186597
      1.95000000	     -6.81529417	     -2.15261090	      1.35574594	      0.36779944	      1.28697978	     -0.86326279	      4.49324189	      6.58972478	     14.53320488	     -1.30416056	      0.09871679	     -5.56758935	     -2.22510178	     28.22309863	      4.25384175	      0.64195698	    -44.88172855	     -8.23572596	    -30.25548228	      7.35718229	     -0.69139745	      6.12304640	     -1.13106274
      1.95500000	     -6.70027182	     -2.22654260	      1.35205187	      0.37313329	      1.28666000	     -0.86324918	      3.75442393	      6.63401735	     14.54127833	     -0.89827237	      0.28051263	     -5.46631479	     -2.10340440	     28.49828171	      4.27457485	      0.94552836	    -43.57013954	     -7.71506365	    -30.09897760	      7.32900580	     -0.85090749	      6.20336839	     -1.11677627
      1.96000000	     -6.59446334	     -2.30598454	      1.34615956	      0.37846164	      1.28627562	     -0.86324314	      3.03672908	      6.68616374	     14.52133639	     -0.51229341	      0.47959934	     -5.33888437	     -1.97683103	     28.75959259	      4.27901005	      1.24556090	    -42.20916020	     -7.24521506	    -29.96037856	      7.30179416	     -1.00214925	      6.28854917	     -1.09977293
      1.96500000	     -6.48583156	     -2.39939480	      1.34249375	      0.38378146	      1.28582211	     -0.86325688	      2.32406230	      6.75508977	     14.45901505	     -0.14066615	      0.69886803	     -5.17402561	     -1.84143868	     29.00052639	      4.25916528	      1.54329453	    -40.81391764	     -6.82419934	    -29.83022151	      7.27344514	     -1.15878513	      6.39117696	     -1.08165903
      1.97000000	     -6.39995299	     -2.49886085	      1.32708248	      0.38909074	      1.28530988	     -0.86326366	      1.65633216	      6.83610203	     14.38124282	      0.19413766	      0.92891794	     -4.98243751	     -1.71748695	     29.23875194	      4.21777788	      1.83108217	    -39.36606853	     -6.46426409	    -29.71708588	      7.24481097	     -1.29548537	      6.49933432	     -1.05996830
      1.97500000	     -6.30842803	     -2.61230859	      1.31823370	      0.39439264	      1.28472978	     -0.86330190	      0.99021859	      6.93443969	     14.25141779	      0.51469066	      1.17847446	     -4.74435409	     -1.59106187	     29.45207236	      4.15544028	      2.12087640	    -37.88646450	     -6.14236450	    -29.59611687	      7.21986361	     -1.44057318	      6.62509860	     -1.04180720
      1.98000000	     -6.23093997	     -2.73428359	      1.30148943	      0.39967912	      1.28408182	     -0.86333531	      0.35634959	      7.04815440	     14.10298234	      0.80356055	      1.44863406	     -4.47670812	     -1.47405111	     29.65825113	      4.06826460	      2.39552142	    -36.36730890	     -5.86429172	    -29.46361562	      7.19885050	     -1.57498157	      6.75717758	     -1.01928351
      1.98500000	     -6.16306843	     -2.86736209	      1.28396942	      0.40497943	      1.28337350	     -0.86338380	     -0.25348048	      7.17856284	     13.90285268	      1.06363259	      1.74274789	     -4.13701567	     -1.34952201	     29.85000754	      3.95888648	      2.66129500	    -34.81205554	     -5.61462162	    -29.30872362	      7.18386529	     -1.69854536	      6.90293418	     -0.99333207
      1.99000000	     -6.13747535	     -3.02543731	      1.27932355	      0.41029930	      1.28255830	     -0.86348664	     -0.80152666	      7.33807003	     13.62545989	      1.28979211	      2.08604426	     -3.67162503	     -1.20434602	     30.07669142	      3.82903971	      2.94983692	    -33.24456938	     -5.39594466	    -29.13760955	      7.17749755	     -1.76833809	      7.07669558	     -0.98375849
      1.99500000	     -6.09929742	     -3.16733377	      1.21689731	      0.41555663	      1.28173247	     -0.86348989	     -1.34748121	      7.49054320	     13.51093897	      1.49432897	      2.36139678	     -3.45039960	     -1.14750387	     30.24742721	      3.66097702	      3.14307182	    -31.60754461	     -5.25232059	    -28.92509764	      7.17334101	     -1.87572316	      7.23107500	     -0.92120357
      2.00000000	     -6.08270175	     -3.34545127	      1.20616978	      0.42088117	      1.28080115	     -0.86360928	     -1.86367438	      7.68123838	     13.18859994	      1.67567516	      2.71723187	     -2.92703411	     -1.01207388	     30.43522374	      3.48631296	      3.40318576	    -29.97706639	     -5.05982029	    -28.65655048	      7.19350133	     -1.93827943	      7.42511801	     -0.90688451
      2.00500000	     -6.15165581	     -3.51238376	      1.12422488	      0.42619032	      1.27976137	     -0.86363012	     -2.27973442	      7.86458573	     13.11350554	      1.84882733	      2.98886023	     -2.80835585	     -0.98554778	     30.68513170	      3.27391430	      3.56626011	    -28.30413208	     -4.98952352	    -28.43241689	      7.18993957	     -1.91628402	      7.60404835	     -0.81646579
      2.01000000	     -6.06583457	     -3.69190156	      1.05898647	      0.43142386	      1.27883878	     -0.86369036	     -2.83168647	      8.06715770	     12.88820875	      1.96129307	      3.33033955	     -2.30455537	     -0.85814057	     30.72906228	      3.03513098	      3.71597157	    -26.58078471	     -4.88297913	    -28.03001873	      7.22802519	     -2.09466719	      7.80046999	     -0.76440301
      2.01500000	     -6.09881295	     -3.88528449	      1.00390770	      0.43674931	      1.27773813	     -0.86378247	     -3.25415389	      8.28546335	     12.65096969	      2.06259608	      3.69982507	     -1.84877921	     -0.73655392	     30.89448989	      2.79288046	      3.88049649	    -24.86932704	     -4.80924393	    -27.65070409	      7.26953232	     -2.10974700	      8.00647756	     -0.71405558
      2.02000000	     -6.14807532	     -4.08524272	      0.92950031	      0.44207202	      1.27659040	     -0.86387552	     -3.64960285	      8.51076503	     12.46931028	      2.14478962	      4.04507965	     -1.46020913	     -0.62755676	     31.05507951	      2.52977046	      4.01666893	    -23.14597906	     -4.76117840	    -27.27733128	      7.31039923	     -2.11409306	      8.22008064	     -0.64353900
